#!OML:ASF G:\JayActor3\Patient Classification 1\Patient 1\Session 6\male.ASF
:FULLY-SPECIFIED
:DEGREES
1852
root 5.90885 15.9133 -22.0666 -15.5289 -144.357 -3.10335
lowerback -8.5273 1.81609 3.63424
upperback -1.14307 2.04882 -0.773795
thorax 3.75168 1.04652 -2.60819
lowerneck -13.6711 4.7999 2.1126
upperneck -27.763 2.06794 -3.55177
head -6.2966 -0.210415 -1.41562
rclavicle 8.39865e-014 2.90226e-014
rhumerus 45.0401 -9.14365 -25.9787
rradius 131.429
rwrist -29.2045
rhand -41.6455 -3.47292
rfingers 7.12502
rthumb -14.5536 -32.9424
lclavicle 8.39865e-014 2.90226e-014
lhumerus -50.83 27.5599 35.959
lradius 5.1314
lwrist 11.2681
lhand -10.4766 6.0102
lfingers 7.12502
lthumb 15.5247 35.407
rfemur 5.27171 6.94443 10.1108
rtibia 34.1908
rfoot -26.8827 -21.4164
rtoes -10.7522
lfemur 13.1764 13.4043 -1.7356
ltibia 44.7298
lfoot -10.382 13.87
ltoes -4.87163
1853
root 5.92301 15.9043 -22.0491 -15.7359 -144.516 -2.86732
lowerback -8.6209 1.77131 3.54695
upperback -1.24496 1.98345 -0.610267
thorax 3.68427 1.00694 -2.39629
lowerneck -13.7181 4.78579 1.94987
upperneck -28.1003 2.00741 -3.36496
head -6.41231 -0.255268 -1.32599
rclavicle -4.29375e-014 -3.77691e-014
rhumerus 44.8638 -9.59947 -25.6984
rradius 131.557
rwrist -29.326
rhand -41.7717 -3.50547
rfingers 7.12502
rthumb -14.6752 -32.9661
lclavicle -4.29375e-014 -3.77691e-014
lhumerus -50.9657 27.8367 35.0049
lradius 5.35
lwrist 11.2327
lhand -10.6103 6.31513
lfingers 7.12502
lthumb 15.3959 35.7219
rfemur 5.06824 7.2084 10.4471
rtibia 34.4323
rfoot -26.8005 -21.3993
rtoes -10.8071
lfemur 14.4887 12.761 -1.57054
ltibia 44.1458
lfoot -9.00821 14.0187
ltoes -4.37508
1854
root 5.93521 15.8904 -22.0303 -16.0121 -144.615 -2.48303
lowerback -8.72901 1.71401 3.54724
upperback -1.35034 1.89099 -0.417571
thorax 3.62204 0.954841 -2.20653
lowerneck -13.833 4.75448 1.83906
upperneck -28.35 1.91128 -3.26448
head -6.48703 -0.315479 -1.27216
rclavicle -1.59028e-015 1.63003e-014
rhumerus 44.6621 -10.0876 -25.3774
rradius 131.678
rwrist -29.4576
rhand -41.7894 -3.55102
rfingers 7.12502
rthumb -14.6922 -33.0104
lclavicle -1.59028e-015 1.63003e-014
lhumerus -50.9995 28.1047 34.0993
lradius 5.60576
lwrist 11.1355
lhand -10.8187 6.56693
lfingers 7.12502
lthumb 15.1951 35.989
rfemur 4.85972 7.43872 10.9018
rtibia 34.7137
rfoot -26.7678 -21.3847
rtoes -10.749
lfemur 15.8186 11.9851 -1.41811
ltibia 43.1807
lfoot -7.75772 14.3794
ltoes -4.55019
1855
root 5.94456 15.871 -22.0098 -16.3461 -144.63 -1.9764
lowerback -8.85172 1.6397 3.62139
upperback -1.45984 1.76679 -0.207606
thorax 3.56403 0.8875 -2.04413
lowerneck -14.0055 4.70295 1.8015
upperneck -28.5097 1.7705 -3.27479
head -6.52075 -0.395556 -1.26634
rclavicle -6.36111e-015 -3.73715e-014
rhumerus 44.4359 -10.6011 -25.0111
rradius 131.789
rwrist -29.5937
rhand -41.7181 -3.5922
rfingers 7.12502
rthumb -14.6236 -33.0566
lclavicle -6.36111e-015 -3.73715e-014
lhumerus -50.9152 28.3724 33.2585
lradius 5.87444
lwrist 10.9932
lhand -11.1097 6.751
lfingers 7.12502
lthumb 14.9148 36.194
rfemur 4.65626 7.59025 11.4254
rtibia 35.0301
rfoot -26.758 -21.3607
rtoes -10.6543
lfemur 17.1536 11.0494 -1.33162
ltibia 41.8524
lfoot -6.82311 14.9725
ltoes -5.73909
1856
root 5.95066 15.8459 -21.9868 -16.7308 -144.538 -1.35567
lowerback -8.99668 1.54303 3.76381
upperback -1.57402 1.60362 0.0139526
thorax 3.5133 0.801062 -1.91263
lowerneck -14.1645 4.61362 1.72764
upperneck -28.6571 1.59098 -3.26075
head -6.55443 -0.490077 -1.24615
rclavicle 6.1822e-014 4.23411e-014
rhumerus 44.195 -11.1315 -24.6025
rradius 131.885
rwrist -29.7228
rhand -41.5763 -3.6332
rfingers 7.12502
rthumb -14.487 -33.1075
lclavicle 6.1822e-014 4.23411e-014
lhumerus -50.714 28.6497 32.4928
lradius 6.15197
lwrist 10.8336
lhand -11.4949 6.86969
lfingers 7.12502
lthumb 14.5437 36.3399
rfemur 4.45709 7.62828 11.989
rtibia 35.3764
rfoot -26.7546 -21.3223
rtoes -10.5577
lfemur 18.4625 9.913 -1.35055
ltibia 40.2046
lfoot -6.41002 15.7793
ltoes -7.96264
1857
root 5.95297 15.8151 -21.9609 -17.1494 -144.32 -0.654721
lowerback -9.16889 1.42035 3.94991
upperback -1.69127 1.3989 0.233864
thorax 3.47354 0.694015 -1.81229
lowerneck -14.2914 4.49631 1.61736
upperneck -28.8025 1.38985 -3.21118
head -6.59382 -0.590916 -1.20811
rclavicle 1.09232e-013 9.93923e-015
rhumerus 43.9447 -11.675 -24.1548
rradius 131.972
rwrist -29.842
rhand -41.4143 -3.66656
rfingers 7.12502
rthumb -14.3308 -33.152
lclavicle 1.09232e-013 9.93923e-015
lhumerus -50.4061 28.9418 31.8073
lradius 6.45432
lwrist 10.6808
lhand -11.9503 6.91537
lfingers 7.12502
lthumb 14.1049 36.4167
rfemur 4.26199 7.51773 12.5376
rtibia 35.7496
rfoot -26.7391 -21.2485
rtoes -10.4767
lfemur 19.7165 8.54452 -1.53072
ltibia 38.3152
lfoot -6.64622 16.7781
ltoes -10.7943
1858
root 5.95176 15.7792 -21.9317 -17.609 -143.974 0.125994
lowerback -9.36102 1.27175 4.17908
upperback -1.81012 1.153 0.448556
thorax 3.44183 0.566514 -1.7468
lowerneck -14.3398 4.3487 1.40454
upperneck -29.0046 1.18238 -3.03565
head -6.66735 -0.689757 -1.11105
rclavicle -6.2319e-014 2.18663e-014
rhumerus 43.6872 -12.2226 -23.6719
rradius 132.051
rwrist -29.9458
rhand -41.2911 -3.70257
rfingers 7.12502
rthumb -14.2122 -33.1963
lclavicle -6.2319e-014 2.18663e-014
lhumerus -49.9961 29.254 31.2087
lradius 6.78648
lwrist 10.559
lhand -12.4507 6.90198
lfingers 7.12502
lthumb 13.6226 36.4362
rfemur 4.07244 7.24061 13.0618
rtibia 36.1407
rfoot -26.6662 -21.1767
rtoes -10.4904
lfemur 20.8919 6.97541 -1.85334
ltibia 36.3026
lfoot -7.51709 17.9171
ltoes -13.6266
1859
root 5.94764 15.7392 -21.8989 -18.1158 -143.508 0.990848
lowerback -9.56687 1.10037 4.45621
upperback -1.93327 0.869638 0.656233
thorax 3.41153 0.420199 -1.72067
lowerneck -14.2937 4.17639 1.10909
upperneck -29.2765 0.969974 -2.75212
head -6.78062 -0.786897 -0.963723
rclavicle 1.3418e-014 -5.00937e-014
rhumerus 43.4232 -12.7674 -23.1655
rradius 132.132
rwrist -30.0397
rhand -41.2352 -3.74273
rfingers 7.12502
rthumb -14.1583 -33.2403
lclavicle 1.3418e-014 -5.00937e-014
lhumerus -49.5015 29.5845 30.6972
lradius 7.16861
lwrist 10.4786
lhand -12.9761 6.83614
lfingers 7.12502
lthumb 13.1162 36.4037
rfemur 3.88905 6.8014 13.5633
rtibia 36.5392
rfoot -26.552 -21.092
rtoes -10.5082
lfemur 21.9572 5.30194 -2.25312
ltibia 34.3071
lfoot -8.89306 19.1411
ltoes -15.9935
1860
root 5.94145 15.6963 -21.8626 -18.6919 -142.951 1.93808
lowerback -9.76164 0.915798 4.78479
upperback -2.05424 0.562783 0.855021
thorax 3.37558 0.262158 -1.73641
lowerneck -14.1714 3.99416 0.772377
upperneck -29.6072 0.759627 -2.40579
head -6.92564 -0.881 -0.7875
rclavicle 1.17283e-014 -6.32135e-014
rhumerus 43.145 -13.3082 -22.6426
rradius 132.22
rwrist -30.122
rhand -41.27 -3.79882
rfingers 7.12502
rthumb -14.1918 -33.294
lclavicle 1.17283e-014 -6.32135e-014
lhumerus -48.9181 29.9385 30.2786
lradius 7.59997
lwrist 10.4476
lhand -13.5052 6.71636
lfingers 7.12502
lthumb 12.6062 36.316
rfemur 3.7285 6.22693 14.0549
rtibia 36.9333
rfoot -26.3726 -21.0283
rtoes -10.5841
lfemur 22.9017 3.67104 -2.63187
ltibia 32.4602
lfoot -10.5918 20.3838
ltoes -17.4744
1861
root 5.9347 15.6525 -21.8234 -19.3351 -142.346 2.95958
lowerback -9.93193 0.730088 5.1578
upperback -2.1755 0.250073 1.04549
thorax 3.32404 0.100705 -1.78714
lowerneck -14.035 3.82884 0.508827
upperneck -29.9255 0.557269 -2.13349
head -7.06588 -0.972392 -0.647584
rclavicle -1.35174e-014 3.79679e-014
rhumerus 42.8462 -13.8413 -22.1192
rradius 132.318
rwrist -30.2028
rhand -41.3667 -3.85733
rfingers 7.12502
rthumb -14.285 -33.346
lclavicle -1.35174e-014 3.79679e-014
lhumerus -48.2884 30.2977 29.933
lradius 8.13303
lwrist 10.4786
lhand -13.9897 6.53385
lfingers 7.12502
lthumb 12.139 36.1617
rfemur 3.58081 5.5647 14.5553
rtibia 37.3191
rfoot -26.1295 -20.9989
rtoes -10.6943
lfemur 23.6972 2.25153 -2.88677
ltibia 30.8476
lfoot -12.3964 21.6402
ltoes -17.9885
1862
root 5.92829 15.6101 -21.7824 -19.9918 -141.717 3.95906
lowerback -10.0732 0.551833 5.50269
upperback -2.29417 -0.0470701 1.20759
thorax 3.25809 -0.0536043 -1.84993
lowerneck -13.9155 3.69301 0.339555
upperneck -30.2071 0.376726 -1.95248
head -7.18831 -1.05566 -0.55407
rclavicle -8.94531e-015 -7.55382e-015
rhumerus 42.5197 -14.3613 -21.6112
rradius 132.43
rwrist -30.2859
rhand -41.4729 -3.92487
rfingers 7.12502
rthumb -14.3873 -33.4063
lclavicle -8.94531e-015 -7.55382e-015
lhumerus -47.6262 30.6592 29.6483
lradius 8.77512
lwrist 10.5809
lhand -14.3947 6.27715
lfingers 7.12502
lthumb 11.7485 35.9277
rfemur 3.44719 4.86964 15.0026
rtibia 37.698
rfoot -25.8684 -20.9844
rtoes -10.7598
lfemur 24.339 1.15614 -3.03137
ltibia 29.4892
lfoot -14.277 22.8832
ltoes -17.7229
1863
root 5.92312 15.5704 -21.7412 -20.6008 -141.092 4.8313
lowerback -10.179 0.38824 5.73853
upperback -2.40657 -0.307492 1.32407
thorax 3.18006 -0.190001 -1.89431
lowerneck -13.8455 3.58944 0.27865
upperneck -30.4269 0.219934 -1.87353
head -7.27953 -1.13094 -0.513746
rclavicle 3.598e-014 2.3059e-014
rhumerus 42.1718 -14.8679 -21.1453
rradius 132.553
rwrist -30.3915
rhand -41.5713 -4.00114
rfingers 7.12502
rthumb -14.4821 -33.4757
lclavicle 3.598e-014 2.3059e-014
lhumerus -46.9436 31.0251 29.4082
lradius 9.52756
lwrist 10.764
lhand -14.6885 5.95305
lfingers 7.12502
lthumb 11.4652 35.6195
rfemur 3.32574 4.21336 15.3421
rtibia 38.0792
rfoot -25.6282 -20.9811
rtoes -10.7573
lfemur 24.8538 0.437351 -3.12349
ltibia 28.3439
lfoot -16.203 24.0875
ltoes -16.9395
1864
root 5.91983 15.5343 -21.7013 -21.1531 -140.499 5.55784
lowerback -10.2443 0.243648 5.85076
upperback -2.50962 -0.522698 1.3978
thorax 3.09242 -0.303818 -1.90786
lowerneck -13.7977 3.50185 0.237242
upperneck -30.6284 0.0893936 -1.78552
head -7.3606 -1.19543 -0.474007
rclavicle -6.34123e-014 -9.74045e-015
rhumerus 41.809 -15.3515 -20.7344
rradius 132.684
rwrist -30.5212
rhand -41.657 -4.08117
rfingers 7.12502
rthumb -14.5647 -33.5498
lclavicle -6.34123e-014 -9.74045e-015
lhumerus -46.2666 31.3873 29.1905
lradius 10.3972
lwrist 11.0433
lhand -14.8591 5.5538
lfingers 7.12502
lthumb 11.3006 35.2294
rfemur 3.22312 3.66739 15.6018
rtibia 38.4674
rfoot -25.4529 -21.009
rtoes -10.6385
lfemur 25.2798 0.0460229 -3.18938
ltibia 27.3446
lfoot -18.1507 25.2224
ltoes -15.7692
